<?xml version="1.0" encoding="UTF-8" standalone="no"?>
<!-- Created with Inkscape (http://www.inkscape.org/) -->

<svg
   version="1.1"
   id="svg1"
   width="1000"
   height="1000"
   viewBox="0 0 1000 1000"
   sodipodi:docname="dika clothing.svg"
   inkscape:version="1.4 (86a8ad7, 2024-10-11)"
   xmlns:inkscape="http://www.inkscape.org/namespaces/inkscape"
   xmlns:sodipodi="http://sodipodi.sourceforge.net/DTD/sodipodi-0.dtd"
   xmlns="http://www.w3.org/2000/svg"
   xmlns:svg="http://www.w3.org/2000/svg">
  <defs
     id="defs1" />
  <sodipodi:namedview
     id="namedview1"
     pagecolor="#ffffff"
     bordercolor="#000000"
     borderopacity="0.25"
     inkscape:showpageshadow="2"
     inkscape:pageopacity="0.0"
     inkscape:pagecheckerboard="0"
     inkscape:deskcolor="#d1d1d1"
     inkscape:zoom="0.60435533"
     inkscape:cx="560.92829"
     inkscape:cy="538.59044"
     inkscape:window-width="1366"
     inkscape:window-height="705"
     inkscape:window-x="-8"
     inkscape:window-y="-8"
     inkscape:window-maximized="1"
     inkscape:current-layer="g1" />
  <g
     inkscape:groupmode="layer"
     inkscape:label="Image"
     id="g1">
    <path
       style="fill:#000000;stroke-width:0.788319"
       d="M -4.2120496,500.06024 -5.0536815,-3.896529 507.71342,-4.5898397 l 496.94438,-2.5021169 -0.824,508.4787766 -2.4894,501.24348 -503.60671,-2.92422 -502.7736769,2.50202 z M 284.282,800.14913 c 31.85101,-23.33467 88.32603,-49.9311 145.22867,-68.39444 24.13554,-7.83132 61.25993,-18.02622 81.78596,-22.45963 83.38129,-18.00973 147.7479,-26.58461 219.65115,-29.26156 13.91435,-0.51815 25.4659,-1.10662 25.66999,-1.30789 0.20409,-0.20113 -0.12424,-0.51367 -0.72901,-0.69482 -2.81408,-0.84176 -15.86047,-2.8604 -20.4773,-3.16828 -2.82971,-0.18879 -7.28038,-0.64811 -9.89043,-1.02073 -5.12503,-0.73162 -9.40825,-1.01891 -34.7189,-2.32786 -30.34889,-1.56972 -83.21272,1.8178 -134.44643,8.61526 -32.52947,4.3157 -75.10602,11.7958 -101.55979,17.84252 -16.41082,3.75111 -49.10142,12.01381 -56.86709,14.37346 -43.25627,13.14357 -66.87793,21.70969 -91.71967,33.26158 -17.14024,7.97042 -22.41609,11.24564 -27.94356,17.34725 -4.49386,4.96052 -8.79829,12.67497 -8.80219,15.77523 l -0.002,2.0322 1.41677,-1.8076 c 0.77922,-0.99418 1.66795,-1.55745 1.97494,-1.25204 0.86127,0.85744 0.62631,4.06103 -0.34137,4.65464 -0.70882,0.43487 -8.0008,14.80658 -8.01055,15.7881 -0.001,0.16189 0.26441,0.29197 0.59119,0.28943 0.32691,-7.8e-4 1.63729,-1.95101 2.91229,-4.3295 2.18262,-4.07167 3.71966,-5.48839 3.69899,-3.40926 -0.005,0.50721 -1.25914,3.42612 -2.78687,6.48637 -5.05941,10.13454 -5.41243,11.30929 -4.47644,14.89359 0.46358,1.7753 0.98172,3.45649 1.1513,3.7361 0.16962,0.27933 2.73895,-1.88084 5.70983,-4.80052 2.9708,-2.91967 8.81229,-7.80746 12.98112,-10.86162 z m 327.42116,-46.37907 c 0.28561,-4.19778 0.75488,-4.83293 2.37744,-3.21803 2.22884,2.2186 9.91874,0.0298 12.27729,-3.49464 3.13153,-4.67939 2.70147,-12.93636 -0.85841,-16.47981 -2.77132,-2.75863 -8.33904,-3.04997 -10.6316,-0.55636 -0.7971,0.86695 -1.72642,1.57772 -2.06521,1.57921 -0.33854,0.002 -0.83521,-0.70197 -1.10311,-1.5635 -0.31134,-1.00111 -1.18296,-1.56347 -2.41404,-1.55741 l -1.92689,0.009 -0.14859,14.95972 -0.1486,14.95959 2.18065,-0.25903 c 2.03405,-0.24152 2.19958,-0.53657 2.46107,-4.37928 z m 2.59512,-6.27296 c -1.94028,-0.72475 -2.3322,-1.9169 -2.29469,-6.9793 0.0443,-5.9946 1.67857,-8.4198 5.6118,-8.32842 4.11153,0.0956 5.86302,2.41132 5.81068,7.6825 -0.0382,3.84962 -0.32668,4.65393 -2.25656,6.29382 -2.13729,1.81627 -4.39979,2.25475 -6.87123,1.3314 z m -96.82169,2.89325 c 3.68725,-2.31829 4.11635,-7.77897 0.77989,-9.92484 -0.93268,-0.60017 -2.99973,-1.50917 -4.59345,-2.02036 -4.25999,-1.36616 -5.08506,-2.70239 -2.96136,-4.79574 1.13816,-1.12212 2.31419,-1.56199 3.43196,-1.28377 6.08146,1.51346 6.04577,1.51444 6.06271,-0.18891 0.0213,-2.14419 -2.21434,-3.24641 -6.54153,-3.22512 -4.14941,0.0204 -7.31534,2.11566 -7.95352,5.26366 -0.70458,3.4752 0.82052,5.55033 5.47086,7.44444 5.02426,2.04629 6.35156,3.79956 4.36158,5.76139 -1.09399,1.07843 -2.2441,1.24594 -6.00439,0.87491 -4.14015,-0.40856 -4.62371,-0.30908 -4.4003,0.90661 0.55932,3.04329 8.22384,3.78058 12.34754,1.1878 z m 28.79822,1.12927 c 1.634,-0.45674 3.99689,-2.02819 5.38183,-3.58001 2.14307,-2.40121 2.47434,-3.35819 2.51036,-7.25058 0.0747,-7.51516 -4.08688,-11.91724 -11.21946,-11.88204 -3.22932,0.016 -8.99605,3.88015 -10.14207,6.7963 -1.782,4.53435 -0.54257,10.99557 2.60715,13.59057 1.03662,0.85414 6.30043,3.02242 7.55334,3.11135 0.2177,0.0163 1.70674,-0.33732 3.30906,-0.78457 z m -7.11365,-4.72423 c -3.57984,-3.31631 -3.70621,-8.85023 -0.28713,-12.56895 1.38334,-1.50471 6.19176,-2.06003 7.92424,-0.9151 1.64938,1.09 2.65292,4.00741 2.61712,7.60854 -0.0279,2.79521 -0.48247,4.05825 -1.99926,5.55359 -2.4311,2.39649 -5.8707,2.53084 -8.25496,0.32192 z m 102.24837,3.58741 c 2.47385,-1.2553 3.07723,-1.32006 3.83275,-0.41139 0.49321,0.59349 1.566,1.07537 2.38385,1.07131 1.36928,-0.007 1.49439,-0.72784 1.57746,-9.09047 0.0901,-9.07331 0.0901,-9.08609 -2.2943,-11.45697 -2.24052,-2.23035 -2.67624,-2.35119 -7.21497,-2.00398 -3.54145,0.27109 -5.12586,0.76619 -5.93757,1.85485 -1.29462,1.73687 -0.98111,3.24619 0.58433,2.81191 0.60035,-0.16792 2.82479,-0.49092 4.94246,-0.72058 4.13051,-0.44818 5.22472,0.27123 5.21615,3.42902 -0.004,1.44446 -0.7206,1.81354 -5.17793,2.66708 -5.96044,1.14137 -8.33405,3.29747 -8.37686,7.60928 -0.0214,2.14986 0.45807,2.9438 2.53251,4.19385 3.17582,1.91374 4.23904,1.92005 7.93223,0.0467 z m -5.32846,-2.92464 c -2.47632,-2.4649 -1.10425,-4.62449 3.6396,-5.72814 4.84347,-1.1258 4.74421,-1.15659 4.7191,1.38683 -0.0256,2.58126 -1.21847,3.79484 -4.72231,4.8047 -1.85055,0.5326 -2.75042,0.41854 -3.63639,-0.46339 z m 28.44302,3.17552 c 7.06662,-2.94765 5.32709,-11.51832 -2.72311,-13.41707 -2.61119,-0.61589 -3.48996,-1.22229 -3.66872,-2.53209 -0.33048,-2.4224 2.70151,-3.70988 6.39476,-2.7152 3.93147,1.05878 5.62282,-0.14526 3.12522,-2.22464 -1.29883,-1.08123 -3.02557,-1.53818 -5.76324,-1.5248 -5.10918,0.0252 -7.82079,2.42749 -7.86587,6.96834 -0.0363,3.65491 0.80296,4.47011 6.22131,6.04182 3.92242,1.13771 4.0857,1.2954 3.82744,3.69535 -0.24463,2.27292 -0.54431,2.53099 -3.20897,2.76314 -1.61656,0.14082 -3.70149,-0.14645 -4.63305,-0.63839 -1.99204,-1.05158 -3.41127,-0.0622 -2.68075,1.87015 0.94171,2.49003 6.88735,3.41822 10.97496,1.71339 z m 20.47849,-0.70038 c 1.62741,-0.84874 2.96987,-3.78847 2.99744,-6.56364 0.0248,-2.49331 -2.19416,-4.42702 -7.04037,-6.13552 -4.58005,-1.61429 -5.3005,-2.38697 -3.83958,-4.11714 0.81616,-0.96669 2.05808,-1.15514 5.62102,-0.85258 4.08765,0.34753 4.57492,0.233 4.58813,-1.07752 0.0197,-1.97611 -2.31607,-3.08008 -6.47373,-3.0595 -4.25397,0.0209 -6.57767,1.55789 -7.81487,5.17058 -1.32551,3.86947 0.15349,5.85265 5.75038,7.71144 5.18008,1.72048 6.46803,3.82365 3.69915,6.04053 -1.56425,1.2523 -2.07581,1.28163 -5.38729,0.30794 -3.47034,-1.02039 -4.98891,-0.93593 -4.97383,0.27702 0.0422,3.40629 8.01937,4.83103 12.87377,2.29941 z m 32.39866,0.27227 c 2.35311,-0.66329 5.3145,-4.90455 5.88155,-8.42201 1.26073,-7.82081 -2.45755,-12.97907 -9.83645,-13.64556 -9.06082,-0.81845 -15.09892,8.03832 -11.33845,16.63185 2.49767,5.70752 7.73371,7.56866 15.29335,5.43572 z m -9.58346,-4.79468 c -2.72025,-2.70778 -3.14814,-6.53241 -1.15196,-10.29469 1.28433,-2.42018 2.68248,-3.20762 5.72262,-3.22267 3.0659,-0.015 4.81032,1.28878 5.79551,4.33165 1.76041,5.43719 -0.51103,10.32901 -5.1526,11.09676 -2.41022,0.39872 -3.17471,0.11848 -5.21357,-1.91105 z m 49.04735,2.3341 c 0.0138,-1.38064 -0.52259,-2.05116 -1.91145,-2.39055 -1.06177,-0.25924 -2.30951,-0.23899 -2.77266,0.0443 -1.33571,0.81941 -1.0138,4.195 0.47871,5.01969 1.93969,1.07134 4.18237,-0.35463 4.20539,-2.67419 z m -256.55169,-7.35129 0.113,-11.37688 -1.98017,0.011 -1.98026,0.009 -0.113,11.3769 -0.11299,11.37674 1.98025,-0.009 1.98014,-0.011 z m 70.3212,9.73726 c 1.74065,-1.20783 1.92607,-1.20886 2.59186,-0.0129 0.39433,0.70854 1.41218,1.28479 2.26189,1.28057 1.46099,-0.007 1.55095,-0.62771 1.65832,-11.43644 l 0.11361,-11.42881 -2.1808,0.25892 -2.18064,0.25902 -0.48178,8.62471 c -0.4804,8.60223 -0.48777,8.62762 -2.80276,9.73027 -1.61038,0.76696 -2.94556,0.89088 -4.36031,0.40525 -1.97786,-0.67911 -2.05126,-0.9545 -2.44078,-9.16546 -0.40699,-8.578 -1.07581,-10.52032 -3.3254,-9.65726 -1.02299,0.39202 -1.26087,1.96692 -1.32866,8.7925 -0.10979,11.05671 1.28471,13.62362 7.41081,13.64141 1.75444,0.005 4.03352,-0.57624 5.06512,-1.29013 z m 15.97704,-6.17615 c 0.0404,-4.06437 0.28518,-7.92373 0.54398,-8.57649 0.25895,-0.65265 2.229,-1.64067 4.37813,-2.19538 3.19622,-0.82257 3.91062,-1.3238 3.92466,-2.73796 0.0244,-2.45066 -1.74205,-2.81012 -5.19619,-1.05748 -2.6972,1.36856 -3.0672,1.39487 -3.88512,0.27585 -0.49723,-0.6803 -1.59463,-1.10247 -2.43875,-0.93809 -1.40881,0.27407 -1.56124,1.13136 -1.85829,10.44854 -0.17808,5.58238 -0.15005,10.60899 0.0621,11.16994 0.21217,0.56132 1.28819,1.01595 2.39098,1.01046 2.00348,-0.011 2.00521,-0.0203 2.07851,-7.39939 z m 110.14012,-4.53067 0.113,-11.37689 -1.89551,0.009 c -1.04252,0.005 -2.11735,0.56908 -2.38854,1.25292 -0.27125,0.68387 -0.53849,5.80458 -0.59387,11.37913 l -0.10072,10.13556 2.37624,-0.0117 2.37639,-0.0117 z m 34.98354,2.50681 c 0.49634,-9.63325 0.75903,-10.10458 5.65721,-10.14875 3.99763,-0.0367 4.56855,1.35488 4.47378,10.89834 l -0.0785,7.89747 2.37622,-0.0117 2.37636,-0.0117 0.0901,-9.08315 c 0.0894,-8.99344 0.067,-9.10603 -2.20233,-11.36542 -2.61562,-2.60367 -7.18588,-3.09352 -10.0858,-1.08124 -1.49028,1.03434 -1.7993,1.03581 -2.64947,0.0131 -0.52931,-0.63679 -1.58524,-1.1548 -2.34633,-1.151 -1.23089,0.007 -1.43896,1.19901 -1.88319,10.79711 -0.27465,5.93465 -0.35098,11.05425 -0.16883,11.37704 0.18139,0.32284 1.15398,0.58265 2.16151,0.5778 1.78241,-0.009 1.84383,-0.24355 2.27993,-8.70791 z m -230.4459,-20.05917 c 0.0127,-1.27469 -0.41938,-1.54189 -2.158,-1.33466 -2.37072,0.28244 -3.50281,2.76364 -1.74957,3.83482 1.47687,0.90233 3.88912,-0.64104 3.90757,-2.50016 z m 196.30704,0.33956 c 0.16816,-0.83533 -0.31251,-1.9667 -1.06802,-2.51399 -1.92188,-1.39278 -4.33338,0.0317 -4.35857,2.56631 -0.0176,1.76432 0.2644,1.95493 2.55054,1.72508 1.79664,-0.18069 2.66222,-0.716 2.87605,-1.7774 z M 400.48726,683.24558 c 4.21458,-2.10676 11.5967,-8.30863 14.26743,-11.98631 1.36336,-1.8773 1.52083,-2.53858 0.72098,-3.02728 -0.82814,-0.50594 -0.78461,-1.1269 0.22802,-3.25438 1.79472,-3.77077 2.46143,-6.1663 1.71401,-6.15845 -0.3561,10e-4 -3.1654,2.31858 -6.24286,5.14406 -8.66416,7.95503 -18.04085,13.75571 -20.64821,12.77386 -2.03912,-0.76797 -1.50524,-7.7809 1.15329,-15.15076 4.97219,-13.78323 17.45793,-27.34359 18.40318,-19.98698 0.50579,3.93643 4.91865,6.21223 7.08053,3.65158 1.6165,-1.91463 2.71134,-8.44388 1.85536,-11.0648 -1.75706,-5.37992 -9.76561,-7.8367 -15.86977,-4.86846 -7.88453,3.83403 -17.9857,16.81646 -22.89114,29.42052 -2.56755,6.59715 -3.1131,16.56543 -1.11386,20.35233 1.1648,2.20634 3.76319,4.45754 6.87161,5.95334 2.38833,1.14929 10.62172,0.12616 14.47143,-1.79827 z m 31.88892,-10.68146 c 4.54818,-2.96239 11.64764,-6.36465 25.36701,-12.15679 3.11071,-1.31325 4.06295,-3.37994 1.55156,-3.36767 -2.16702,0.011 -2.65093,-0.88092 -1.09108,-2.01028 0.76035,-0.55057 1.17513,-1.20743 0.92163,-1.45974 -0.83554,-0.83178 -12.91767,1.74195 -18.12214,3.86037 -6.05379,2.46409 -7.488,2.61327 -6.86948,0.71462 5.46565,-16.77767 9.482,-30.70458 9.50437,-32.95718 0.0221,-2.22946 -4.18803,-5.05609 -7.04575,-4.73039 -1.82713,0.20831 -2.32959,1.45252 -8.18177,20.25917 -3.42933,11.02049 -6.89171,22.04272 -7.69422,24.49373 -1.32813,4.0566 -1.34997,4.61243 -0.24312,6.19453 1.15025,1.64406 5.07674,4.6151 6.1074,4.62118 0.26205,-0.002 2.87014,-1.55619 5.79559,-3.46155 z m 50.1452,-9.10162 c 11.20472,-3.79805 23.20665,-23.72689 21.72038,-36.0659 -0.67854,-5.63277 -3.10474,-10.21099 -6.50245,-12.26993 -1.5931,-0.96539 -3.53824,-2.55781 -4.32246,-3.53881 -2.79022,-3.49019 -10.00486,-1.49144 -16.2115,4.49134 -10.39099,10.01598 -16.27105,22.08414 -16.38576,33.62937 -0.0482,4.85364 -0.0101,4.93985 4.07673,9.10755 5.67273,5.78585 10.50526,7.05979 17.62506,4.64638 z m -9.87074,-9.64833 c -2.21623,-5.41779 3.34129,-19.25761 10.8909,-27.12125 4.7173,-4.9135 6.13186,-5.20753 8.6715,-1.80259 1.44066,1.93165 1.50571,2.56361 0.68612,6.66543 -2.10372,10.5298 -7.89424,19.58 -14.75719,23.06449 -4.01517,2.03867 -4.34753,1.98993 -5.49133,-0.80608 z m -134.77195,-4.82392 c 6.48589,-5.35062 11.95816,-9.1593 32.88157,-22.8858 4.23527,-2.77844 27.14431,-15.89141 36.2444,-20.74602 20.6965,-11.0409 49.8949,-24.35772 70.01769,-31.93376 2.62355,-0.98773 6.3812,-2.51304 8.35018,-3.3895 10.08444,-4.48902 59.99743,-20.86716 85.82128,-28.16087 75.38769,-21.2926 145.50423,-33.91026 201.14455,-36.1966 18.66066,-0.76677 22.06374,-1.57479 22.47068,-5.33529 0.1862,-1.72091 0.85899,-2.71433 2.27366,-3.3569 1.86605,-0.84764 2.30045,-2.78349 0.65052,-2.89944 -0.39905,-0.028 -2.14743,-0.44114 -3.88512,-0.91798 -3.63087,-0.99635 -19.1699,-2.43755 -25.96268,-2.40796 -2.53061,0.011 -4.40414,-0.29184 -4.16323,-0.67297 0.43849,-0.69398 9.54267,-1.64332 18.09636,-1.88702 2.50565,-0.0714 4.55831,-0.40029 4.56158,-0.73088 0.0195,-1.96084 -32.41568,-1.51468 -55.42684,0.76241 -29.49078,2.91827 -71.84503,9.49776 -101.70969,15.80005 -8.43213,1.77943 -18.90278,3.96753 -23.26798,4.86241 -7.27555,1.49152 -33.30404,7.91793 -59.94682,14.80077 -5.89622,1.52284 -18.76473,5.28385 -28.59687,8.35694 -9.83216,3.07312 -21.45189,6.69866 -25.82167,8.05669 -11.93874,3.7104 -44.89514,16.11681 -64.80112,24.39425 -13.21524,5.49528 -42.19139,19.44252 -54.52879,26.24669 -17.17894,9.47433 -33.34679,20.37155 -40.09634,27.02519 -5.92887,5.84456 -6.76971,7.17368 -4.37854,6.92118 3.97314,-0.41953 4.53476,1.63274 1.44213,5.26958 -2.4487,2.87951 -3.30371,5.55699 -2.19892,6.88587 0.66394,0.7986 0.38949,1.60924 -1.15655,3.41573 -3.4742,4.05946 -2.06593,5.88182 1.56456,2.02457 1.70157,-1.8079 2.01264,-1.90272 2.44985,-0.74666 0.48585,1.28459 -0.29999,3.38225 -2.27486,6.07208 -0.75092,1.02283 -0.73427,2.00766 0.0762,4.51088 0.57027,1.76138 1.36471,3.2008 1.76543,3.19885 0.40076,-0.002 4.18312,-2.85341 8.40533,-6.33654 z m 183.09903,4.52287 c 0.005,-0.47779 0.52303,-0.6749 1.15184,-0.43809 0.66087,0.24894 1.32659,-0.13263 1.57766,-0.90459 1.22542,-3.76618 9.04191,-33.39033 9.8683,-37.40023 l 0.95649,-4.64067 3.94606,-1.3126 c 10.68948,-3.55564 12.39901,-4.22926 13.50838,-5.3228 1.44155,-1.42109 0.87786,-2.62053 -1.22675,-2.61014 -0.8456,0.004 -1.53397,-0.34547 -1.52969,-0.77703 0.004,-0.43156 0.54245,-0.78724 1.19597,-0.79045 2.63133,-0.013 0.98164,-1.51054 -2.15872,-1.95961 -5.40913,-0.77338 -14.17596,1.54775 -33.94953,8.98868 -9.68015,3.6427 -9.93927,3.84419 -8.28416,6.44229 0.71492,1.12217 1.99569,2.70648 2.84636,3.52051 1.50028,1.43595 1.68013,1.43791 6.02356,0.0657 2.46243,-0.77805 4.92434,-1.58575 5.47089,-1.79485 1.24043,-0.47452 1.28936,3.01913 0.0959,6.85837 -1.28406,4.13113 -5.75997,25.12358 -5.77965,27.10761 -0.0231,2.31931 2.85055,5.85346 4.75164,5.84411 0.83969,-0.004 1.53156,-0.39417 1.53534,-0.87613 z m 34.76859,-12.83699 c 0.90567,-2.70139 2.10412,-6.85565 2.66323,-9.23175 0.55905,-2.3761 1.28753,-4.84693 1.61887,-5.49082 0.60288,-1.1719 11.93248,-5.06883 12.65266,-4.35208 0.21018,0.20923 -0.45483,3.64704 -1.47788,7.63957 -1.02293,3.99255 -1.7582,8.6686 -1.63381,10.39131 0.20774,2.87516 0.405,3.11908 2.406,2.97363 1.19881,-0.0874 2.17636,0.17279 2.17235,0.57769 -0.0149,1.49834 1.35397,0.66262 2.33229,-1.42396 l 1.00962,-2.1535 1.02905,1.93519 c 1.02393,1.92564 1.0316,1.91966 1.55533,-1.19367 1.17802,-7.00239 4.29206,-18.1003 9.24562,-32.94917 2.93377,-8.79417 5.05399,-16.4081 4.82775,-17.33641 -0.36701,-1.50517 -7.87291,-5.8483 -8.60336,-4.9781 -0.15265,0.1818 -2.30236,5.98944 -4.77723,12.90583 l -4.49953,12.57526 -3.87319,0.5236 c -2.13019,0.28794 -4.90675,0.92939 -6.17003,1.42532 -1.26339,0.49605 -2.44342,0.75602 -2.62255,0.57785 -0.17902,-0.17826 0.94237,-3.83911 2.49209,-8.13529 2.58211,-7.1587 3.31469,-10.11154 3.1014,-12.50118 -0.0968,-1.08442 -7.76547,-4.42121 -9.03632,-3.93191 -0.50402,0.19411 -1.42899,2.0768 -2.05549,4.18379 -0.62642,2.107 -1.95363,6.48282 -2.94919,9.72407 -0.99559,3.24127 -2.45879,8.01469 -3.25152,10.60768 -1.77745,5.81348 -2.33503,6.51067 -5.72379,7.15597 -1.8569,0.35342 -2.702,0.94494 -2.71147,1.89744 -0.007,0.76118 -0.24741,2.48832 -0.53315,3.83815 -0.49302,2.33003 -0.39396,2.45375 1.9559,2.44213 2.8574,-0.0141 2.8703,0.0564 1.46744,8.00413 l -0.98361,5.57239 2.14232,1.8303 c 1.17824,1.00656 3.14165,1.82527 4.363,1.81918 2.02544,-0.011 2.36531,-0.44256 3.8672,-4.92264 z m 44.23065,-6.29863 c 0.0251,-2.53674 1.47571,-2.992 2.05472,-0.6455 0.33712,1.36616 0.695,0.65492 1.46096,-2.90305 1.32955,-6.17662 5.07862,-18.61126 9.63644,-31.96111 2.01826,-5.91158 3.56038,-11.56807 3.42702,-12.56999 -0.16625,-1.24808 -1.41397,-2.43183 -3.96265,-3.75949 -3.2986,-1.71837 -3.85492,-1.80448 -4.91119,-0.76034 -1.37059,1.35474 -9.21702,24.45064 -12.76516,37.57389 -3.10598,11.48787 -3.15693,14.24814 -0.29469,15.9759 3.10377,1.87363 5.33026,1.47822 5.3544,-0.95095 z m 21.85143,-3.51384 c 2.07342,0.40142 2.24053,0.20417 3.54123,-4.17882 0.75089,-2.53008 1.89134,-6.36817 2.53464,-8.5288 5.84708,-19.64226 7.15872,-22.64645 7.98121,-18.28063 2.51997,13.37558 4.57282,20.53676 6.50577,22.69389 1.99759,2.22915 2.34698,2.33103 6.15492,1.79419 l 4.03709,-0.56913 2.60621,-9.56179 c 5.3811,-19.74269 9.5631,-30.47359 15.00495,-38.50248 1.58397,-2.33691 2.88258,-4.52133 2.8859,-4.85426 0.004,-0.33295 -1.06541,-0.38819 -2.3749,-0.12278 -1.78461,0.36164 -2.37805,0.19265 -2.36944,-0.67477 0.015,-1.50881 -1.89178,-1.47704 -3.18362,0.0532 -0.55698,0.65976 -1.62457,1.00964 -2.37239,0.77752 -2.68098,-0.83227 -7.46536,7.23439 -12.48478,21.04985 -1.68841,4.64709 -3.37076,8.45076 -3.73874,8.45258 -0.36798,10e-4 -0.85015,-0.96673 -1.07142,-2.15229 -1.9731,-10.57185 -4.17967,-14.36817 -10.01838,-17.23612 -3.21329,-1.57837 -4.0021,-1.71009 -4.88575,-0.81587 -2.68593,2.71797 -14.02824,35.76425 -14.82152,43.18308 -0.3638,3.40146 -0.15769,4.86893 0.91396,6.50839 0.91986,1.40719 1.65104,1.85317 2.1813,1.33043 0.43867,-0.43242 1.77688,-0.59682 2.97377,-0.36511 z m 76.93561,-6.63311 c 0.44373,-0.94649 2.8989,-7.69786 5.45619,-15.00316 l 4.64945,-13.28213 8.99167,-2.942 c 4.94547,-1.61802 9.76802,-3.70715 10.71683,-4.64249 l 1.72515,-1.70057 -2.15621,0.011 c -2.14794,0.011 -2.86038,-1.02509 -1.34468,-1.95479 0.43821,-0.26884 0.80058,-0.86115 0.80509,-1.31619 0.0217,-2.19442 -30.07553,5.45911 -37.95011,9.65036 -3.04377,1.6201 -5.7287,8.74558 -3.29075,8.73355 0.50614,-0.002 2.82471,-0.60625 5.15214,-1.34206 2.32741,-0.73581 4.47489,-1.09532 4.77211,-0.79988 0.95776,0.95346 -4.00966,5.33234 -8.78906,7.74782 -5.95407,3.00903 -9.54704,2.90304 -9.88591,-0.29181 -0.8704,-8.20537 14.07029,-28.87832 23.46236,-32.46419 2.9968,-1.14415 4.09244,-1.24297 5.71486,-0.51551 2.64783,1.18729 3.47599,0.55606 3.50809,-2.67358 0.0647,-6.52646 -9.25417,-9.30644 -17.854,-5.32617 -4.51254,2.0886 -14.69376,12.46835 -18.6472,19.01094 -3.86396,6.39452 -7.35258,15.60923 -7.39145,19.52353 -0.0532,5.37081 3.37257,10.4377 8.48662,12.55144 3.46351,1.43151 6.12292,1.37387 11.11028,-0.24111 2.2402,-0.72543 4.24446,-1.14868 4.45422,-0.93965 0.20956,0.20871 -0.21231,2.05884 -0.93753,4.11153 -1.4929,4.22534 -1.12552,5.00211 3.03939,6.4252 2.9447,1.00613 5.00113,0.23394 6.20252,-2.32931 z m -435.94303,-1.0952 c 31.42205,-6.76375 67.30203,-36.17214 106.15228,-87.00586 11.03091,-14.43343 21.03533,-30.38099 29.78139,-47.473 8.81371,-17.2242 14.64348,-32.05133 19.16291,-48.73778 3.01605,-11.13572 3.34467,-13.28729 3.84289,-25.15955 0.65154,-15.52358 -0.48226,-22.98293 -4.87578,-32.0792 -5.50583,-11.39921 -17.1531,-20.44455 -29.13488,-22.62634 -5.44524,-0.99153 -15.70059,-0.93363 -22.09884,0.12473 -22.39108,3.70387 -50.28801,20.14699 -75.7456,44.64628 -20.73481,19.95431 -33.47665,40.38638 -31.94279,51.22166 1.437,10.15104 10.3555,18.23316 19.42658,17.60473 1.14207,-0.0792 1.28525,-0.68097 0.93085,-3.91169 -0.28083,-2.56008 0.0322,-5.12709 0.95041,-7.79064 1.89369,-5.49418 9.516,-16.41252 16.16596,-23.15652 4.70125,-4.76774 5.59519,-5.38395 5.78863,-3.99021 0.12585,0.90656 -0.47333,3.00281 -1.33138,4.65836 -1.69266,3.26574 -13.22599,36.73262 -17.69296,51.34061 -9.96775,32.59673 -16.69284,64.99878 -15.98788,77.03078 0.49273,8.40935 3.2913,13.30235 10.87368,19.01147 1.61728,1.21768 2.73469,2.53967 2.48318,2.93769 -0.25153,0.39805 -4.41702,2.7006 -9.25662,5.11678 -18.69522,9.33362 -33.93265,10.14759 -38.51251,2.05724 -1.55663,-2.74974 -2.39985,-2.87748 -4.74749,-0.71911 -4.8464,4.45547 0.82331,17.85302 9.88862,23.36687 7.66336,4.66117 15.60223,5.74488 25.87935,3.53266 z m 26.31052,-47.43919 c 2.25496,-28.33545 24.58721,-101.10536 44.28608,-144.30686 2.93907,-6.44566 3.40899,-9.86496 1.7892,-13.01969 -1.69479,-3.30082 -4.73687,-6.08982 -8.23873,-7.55326 l -2.76898,-1.15715 3.59552,-3.1468 c 10.58884,-9.26747 36.113,-23.48732 48.13525,-26.81682 8.70775,-2.41157 15.74557,-2.04097 18.33768,0.96563 9.63182,11.17214 1.83199,55.12823 -16.51398,93.06484 -15.32793,31.69569 -38.78677,64.3823 -63.67909,88.72789 -10.14009,9.9174 -22.55987,20.09541 -24.53338,20.10516 -0.71035,0.004 -0.81563,-1.76057 -0.40957,-6.86294 z m 148.83594,-29.19053 c 10.02633,-4.53588 21.274,-17.40085 32.70967,-37.41306 2.22552,-3.89465 4.688,-8.40822 5.47208,-10.03026 0.78411,-1.62206 1.65229,-2.95028 1.9294,-2.95167 0.27712,-10e-4 0.48234,4.49909 0.45599,10.001 -0.0261,5.50191 0.36134,11.45585 0.86141,13.23098 1.76552,6.26782 6.32052,9.79766 13.89766,10.7699 6.22923,0.79929 6.56993,0.27314 8.04577,-12.42588 1.49583,-12.87091 2.83153,-19.79871 6.72782,-34.89357 3.19626,-12.38279 4.22335,-15.0957 5.71797,-15.10308 0.94302,-0.004 3.50151,5.85551 4.68574,10.7327 1.38884,5.71988 8.35205,19.82367 12.28852,24.88999 6.68603,8.60498 11.22305,10.91992 21.30421,10.87016 6.47194,-0.032 7.62894,-0.27875 12.5581,-2.67874 6.71627,-3.27016 15.32599,-11.1236 20.62172,-18.81043 2.14211,-3.10928 4.24537,-5.86833 4.67389,-6.13116 0.42853,-0.26288 1.46108,0.85512 2.2947,2.48443 5.25631,10.27355 18.55299,14.19276 29.71476,8.75847 2.62647,-1.27877 6.15174,-3.61996 7.83405,-5.20266 4.02853,-3.7902 11.04115,-12.7461 14.19363,-18.12711 1.38631,-2.36627 2.82258,-4.30382 3.19156,-4.30563 0.36911,-10e-4 0.86705,1.05489 1.10662,2.34824 0.23949,1.2934 0.64177,3.45757 0.89379,4.80935 0.65526,3.51572 6.40281,8.96404 10.62557,10.07247 15.35077,4.02937 34.19217,-13.76732 52.22041,-49.32509 7.85437,-15.49145 11.35071,-23.56639 16.32657,-37.70718 4.01166,-11.40026 4.2763,-12.99911 2.15027,-12.98864 -2.01243,0.011 -3.08359,1.4169 -8.99312,11.81289 -10.84312,19.07521 -23.21183,37.16396 -31.5227,46.1008 -5.39506,5.80146 -13.89281,12.44071 -15.0322,11.74456 -1.29717,-0.7925 -0.68473,-4.82626 2.15691,-14.20722 5.39603,-17.81362 11.15199,-32.87955 17.96189,-47.0144 l 3.0196,-6.26762 -1.82677,-3.4662 c -4.3291,-8.21435 -17.45821,-14.07409 -19.26439,-8.59799 -0.50956,1.54517 -2.78106,2.18989 -2.7671,0.78537 0.0163,-1.63408 -5.14588,-6.48187 -8.89766,-8.3559 -3.20363,-1.60026 -4.79661,-1.91131 -8.38296,-1.63682 -7.10425,0.54368 -11.41158,3.12261 -20.76209,12.4308 -14.02065,13.95723 -26.69004,34.30658 -35.81564,57.52631 -5.13522,13.06626 -17.04648,33.27542 -24.85095,42.16298 -3.91796,4.46165 -10.67398,8.86114 -14.55169,9.47594 -2.87479,0.45576 -3.57325,0.23371 -6.0435,-1.92111 -3.8156,-3.32838 -8.51776,-13.2793 -11.86709,-25.11335 -1.52451,-5.38635 -2.93493,-10.33227 -3.13441,-10.9909 -0.23212,-0.76675 1.88167,-3.17546 5.87696,-6.69658 22.15115,-19.52263 36.55754,-35.84096 38.83578,-43.98997 0.96033,-3.43503 0.90372,-3.99766 -0.71104,-7.06156 -5.06476,-9.61028 -14.38854,-7.43848 -28.73861,6.69414 -12.63142,12.43995 -26.22478,30.14022 -32.37813,42.16034 -3.36335,6.57008 -5.00436,8.838 -5.81279,8.0333 -0.79806,-0.79443 0.68234,-6.22604 5.83081,-21.39304 5.13912,-15.1395 8.31873,-23.06415 10.0627,-25.07979 0.71366,-0.82471 4.34656,-3.45611 8.07314,-5.84752 26.84538,-17.22719 54.67642,-43.24396 69.35011,-64.82946 10.61303,-15.61201 15.4991,-30.55702 12.9385,-39.57463 -3.55177,-12.50802 -21.48708,-18.67086 -37.21271,-12.78683 -10.769,4.02947 -26.95204,19.83819 -39.3431,38.43326 -21.47396,32.2252 -44.85646,85.63194 -57.71326,131.81993 -3.66919,13.1814 -4.53045,15.19206 -10.60785,24.76705 -7.1224,11.22126 -15.88757,22.76017 -22.36931,29.44824 -6.19612,6.39328 -13.97031,12.31238 -16.18558,12.32332 -1.40099,0.007 -1.50531,-0.3453 -0.98625,-3.32955 2.70242,-15.53725 13.9749,-48.70261 23.81634,-70.07135 l 3.58979,-7.79453 -1.38122,-2.58096 c -2.36902,-4.42658 -9.07577,-9.33781 -14.31957,-10.48599 -2.30759,-0.50526 -2.95935,-0.29317 -4.66687,1.51873 -9.2128,9.77588 -26.61542,53.26438 -32.73058,81.79248 -4.8966,22.8433 -3.13173,33.53321 6.38744,38.689 5.0113,2.71425 13.08966,2.93309 18.46726,0.50029 z m 183.05928,-77.57967 c 0.004,-0.32365 0.54848,-3.47756 1.21033,-7.00868 2.83119,-15.10491 12.79024,-38.04658 23.02161,-53.03272 6.65802,-9.7522 15.08323,-18.02726 18.35207,-18.02515 4.44182,0.002 4.53139,0.68563 1.24494,9.4953 -11.49278,30.80857 -30.44873,63.02852 -40.02311,68.0287 -2.37291,1.2392 -3.81653,1.44499 -3.80584,0.54255 z m -75.90124,-93.51385 c 0.0297,-3.00469 16.44942,-33.49081 24.63389,-45.73746 8.79242,-13.15651 20.00932,-25.88756 25.75564,-29.23242 6.047,-3.51985 7.09221,-1.43537 4.04265,8.06293 -4.6018,14.33317 -17.11661,33.13213 -32.19253,48.35757 -7.50637,7.5808 -20.87891,19.656 -21.77258,19.66041 -0.26294,9e-4 -0.47315,-0.49866 -0.46707,-1.11103 z m -75.34299,35.02548 c 2.28117,-2.27672 5.94218,-7.32581 8.13548,-11.22024 2.19324,-3.89445 4.1988,-7.2584 4.45664,-7.47539 0.25786,-0.21706 1.77674,-2.16633 3.37513,-4.3318 3.24318,-4.39347 12.08869,-13.02388 14.84761,-14.4866 2.53452,-1.3437 2.3426,-3.86103 -0.35042,-4.59579 -1.19475,-0.32593 -5.20249,-0.52786 -8.90606,-0.44867 -13.31002,0.28453 -25.25557,6.58393 -30.57846,16.12527 -5.72201,10.25656 -6.17769,23.50154 -1.00484,29.19995 2.37208,2.61304 5.49898,1.75005 10.02492,-2.76673 z"
       id="path1"
       sodipodi:nodetypes="cccccccccssssssssssssssscsssscsssssssssssssssscccsssssssssssssssssssssssssssssssssssssssssssssssssssssssssssssssssssssssssssssssssssssssssssscsssccccccccssssscccsssssssssscssssssssccsssccccssscccsssssssssssssssssssscsscssssssssssssssssssssssscssssssssssssssssssssssssssssssssssssssssssssssssssssscsssssssssssssssssssssssscsssssscsssssssssssssscsssssssssssssssscsscssssssssssssssssssscsscsssssssssssssssssssssssssssscsssssssssssssssssssssscssssssssssssssssssssssssssssssssssssssscssssssssssssssssssssssssssssssscssssssssssssssssssssssssssssssssscsssscssssss"
       inkscape:highlight-color="#7decae" />
  </g>
</svg>
