<?xml version="1.0" encoding="UTF-8" standalone="no"?>
<!-- Created with Inkscape (http://www.inkscape.org/) -->

<svg
   version="1.1"
   id="svg1"
   width="1000"
   height="1000"
   viewBox="0 0 1000 1000"
   sodipodi:docname="dika clothing.svg"
   inkscape:version="1.4 (86a8ad7, 2024-10-11)"
   xmlns:inkscape="http://www.inkscape.org/namespaces/inkscape"
   xmlns:sodipodi="http://sodipodi.sourceforge.net/DTD/sodipodi-0.dtd"
   xmlns="http://www.w3.org/2000/svg"
   xmlns:svg="http://www.w3.org/2000/svg">
  <defs
     id="defs1" />
  <sodipodi:namedview
     id="namedview1"
     pagecolor="#ffffff"
     bordercolor="#000000"
     borderopacity="0.25"
     inkscape:showpageshadow="2"
     inkscape:pageopacity="0.0"
     inkscape:pagecheckerboard="0"
     inkscape:deskcolor="#d1d1d1"
     inkscape:zoom="0.60435533"
     inkscape:cx="723.08455"
     inkscape:cy="273.84552"
     inkscape:window-width="1366"
     inkscape:window-height="705"
     inkscape:window-x="-8"
     inkscape:window-y="-8"
     inkscape:window-maximized="1"
     inkscape:current-layer="g1" />
  <g
     inkscape:groupmode="layer"
     inkscape:label="Image"
     id="g1">
    <path
       style="fill:#1a1a1a;stroke-width:0.782506"
       d="M 4.0543329,503.35453 3.2195971,2.7011482 511.78523,2.0123821 1004.6578,-0.47333372 1003.8406,504.67242 1001.3715,1002.6303 501.89124,999.72525 3.2371467,1002.2109 Z M 290.18455,801.47637 c 31.59003,-23.18171 87.60231,-49.60381 144.03871,-67.94612 23.93778,-7.77999 60.75798,-17.90806 81.11582,-22.31241 82.69809,-17.89168 146.5373,-26.41035 217.8514,-29.06975 13.80034,-0.51475 25.25724,-1.09937 25.45965,-1.29932 0.20243,-0.19981 -0.12321,-0.5103 -0.72303,-0.69027 -2.79102,-0.83624 -15.73051,-2.84164 -20.30951,-3.14751 -2.80653,-0.18755 -7.22073,-0.64386 -9.8094,-1.01404 -5.08303,-0.72682 -9.33116,-1.01223 -34.43442,-2.3126 -30.10022,-1.55943 -82.5309,1.80589 -133.34482,8.55879 -32.26293,4.28741 -74.49062,11.71848 -100.72763,17.72557 -16.27636,3.72652 -48.6991,11.93505 -56.40114,14.27924 -42.90184,13.05741 -66.32995,21.56739 -90.96814,33.04355 -16.99981,7.91818 -22.23243,11.17193 -27.7146,17.23354 -4.45705,4.92801 -8.7262,12.59189 -8.73008,15.67183 l -0.002,2.01888 1.40515,-1.79576 c 0.77284,-0.98766 1.65429,-1.54723 1.95876,-1.24383 0.85422,0.85182 0.62118,4.03441 -0.33857,4.62413 -0.70301,0.43202 -7.93524,14.70952 -7.94491,15.68461 -10e-4,0.16083 0.26224,0.29006 0.58635,0.28754 0.32422,-7.8e-4 1.62386,-1.93823 2.88842,-4.30112 2.16474,-4.04499 3.68918,-5.45242 3.66868,-3.38692 -0.005,0.50389 -1.24882,3.40366 -2.76403,6.44385 -5.01796,10.06812 -5.36809,11.23517 -4.43977,14.79597 0.45979,1.76366 0.97368,3.43383 1.14187,3.71161 0.16823,0.2775 2.71651,-1.86851 5.66304,-4.76905 2.94646,-2.90053 8.74009,-7.75629 12.87476,-10.79043 z m 324.73836,-46.07506 c 0.28327,-4.17026 0.7487,-4.80125 2.35796,-3.19693 2.21058,2.20406 9.83747,0.0296 12.1767,-3.47174 3.10587,-4.64871 2.67933,-12.85157 -0.85138,-16.37178 -2.74861,-2.74055 -8.27071,-3.02998 -10.54449,-0.55271 -0.79057,0.86126 -1.71227,1.56737 -2.04828,1.56885 -0.33577,0.002 -0.82837,-0.69737 -1.09407,-1.55325 -0.30879,-0.99455 -1.17327,-1.55322 -2.39427,-1.5472 l -1.9111,0.009 -0.14737,14.86167 -0.14738,14.86153 2.16278,-0.25733 c 2.01738,-0.23994 2.18156,-0.53305 2.4409,-4.35058 z m 2.57386,-6.23184 c -1.92438,-0.72 -2.31309,-1.90434 -2.27589,-6.93355 0.0439,-5.95531 1.66482,-8.36461 5.56582,-8.27383 4.07784,0.095 5.81498,2.39552 5.76307,7.63214 -0.0379,3.82439 -0.324,4.62343 -2.23807,6.25257 -2.11978,1.80436 -4.36374,2.23997 -6.81493,1.32267 z m -96.02836,2.87429 c 3.65704,-2.3031 4.08262,-7.72799 0.7735,-9.85979 -0.92504,-0.59624 -2.97515,-1.49928 -4.55582,-2.00711 -4.22508,-1.35721 -5.04338,-2.68468 -2.93709,-4.76431 1.12883,-1.11476 2.29523,-1.55175 3.40384,-1.27536 6.03163,1.50354 5.99623,1.50452 6.01304,-0.18767 0.0212,-2.13013 -2.1962,-3.22513 -6.48793,-3.20398 -4.11541,0.0203 -7.25541,2.1018 -7.88836,5.22916 -0.6988,3.45242 0.8138,5.51395 5.42604,7.39564 4.98309,2.03288 6.29952,3.77466 4.32584,5.72363 -1.08503,1.07136 -2.22571,1.23777 -5.95519,0.86917 -4.10623,-0.40588 -4.58583,-0.30705 -4.36425,0.90067 0.55474,3.02334 8.15646,3.7558 12.24637,1.18002 z m 28.56225,1.12187 c 1.62061,-0.45375 3.96414,-2.0149 5.33774,-3.55655 2.12551,-2.38547 2.45407,-3.33618 2.48979,-7.20305 0.0741,-7.4659 -4.05339,-11.83913 -11.12754,-11.80416 -3.20285,0.016 -8.92233,3.85472 -10.05896,6.75175 -1.7674,4.50463 -0.53813,10.9235 2.58579,13.50149 1.02812,0.84854 6.24881,3.00261 7.49144,3.09095 0.21593,0.0162 1.69277,-0.3351 3.28195,-0.77942 z m -7.05536,-4.69327 c -3.55051,-3.29457 -3.67584,-8.79222 -0.28477,-12.48656 1.372,-1.49485 6.14102,-2.04653 7.8593,-0.9091 1.63587,1.08285 2.63119,3.98114 2.59568,7.55867 -0.0276,2.77688 -0.47851,4.03164 -1.98288,5.51718 -2.41118,2.38078 -5.82259,2.51425 -8.18732,0.31981 z m 101.41058,3.56389 c 2.45358,-1.24706 3.05202,-1.3114 3.80135,-0.40869 0.48916,0.5896 1.55316,1.06833 2.36431,1.0643 1.35806,-0.007 1.48214,-0.72308 1.56454,-9.03089 0.0893,-9.01384 0.0894,-9.02654 -2.2755,-11.38188 -2.22216,-2.21573 -2.65432,-2.33577 -7.15586,-1.99084 -3.51243,0.26931 -5.08386,0.76116 -5.88892,1.84269 -1.28401,1.72549 -0.97307,3.22491 0.57954,2.79348 0.59544,-0.16682 2.80165,-0.4877 4.90197,-0.71585 4.09666,-0.44525 5.18191,0.26945 5.17341,3.40654 -0.004,1.43499 -0.71469,1.80165 -5.13551,2.6496 -5.91159,1.13389 -8.26576,3.27585 -8.30822,7.5594 -0.0213,2.13576 0.45432,2.9245 2.51176,4.16636 3.1498,1.90119 4.20431,1.90746 7.86724,0.0463 z m -5.2848,-2.90546 c -2.45603,-2.44874 -1.0952,-4.59418 3.60978,-5.6906 4.80378,-1.11842 4.70533,-1.14901 4.68043,1.37774 -0.0254,2.56435 -1.20849,3.76997 -4.68362,4.77321 -1.83538,0.52911 -2.72788,0.4158 -3.60659,-0.46035 z m 28.20996,3.1547 c 7.00872,-2.92833 5.28345,-11.44282 -2.7008,-13.32912 -2.58979,-0.61186 -3.46136,-1.21428 -3.63865,-2.5155 -0.32777,-2.40652 2.67937,-3.68556 6.34237,-2.6974 3.89924,1.05184 5.57674,-0.1443 3.0996,-2.21006 -1.28819,-1.07413 -3.00078,-1.52809 -5.71601,-1.5148 -5.06732,0.025 -7.75671,2.41158 -7.80142,6.92266 -0.036,3.63096 0.79637,4.44081 6.17033,6.00222 3.89029,1.13025 4.05223,1.28691 3.79608,3.67113 -0.24263,2.25802 -0.53985,2.5144 -3.18268,2.74502 -1.60331,0.1399 -3.67115,-0.14549 -4.59509,-0.6342 -1.97571,-1.04469 -3.38332,-0.0618 -2.65878,1.85789 0.93399,2.47371 6.83092,3.39581 10.88503,1.70216 z m 20.3107,-0.69579 c 1.61408,-0.84317 2.94554,-3.76364 2.97288,-6.52061 0.0246,-2.47697 -2.17618,-4.398 -6.98268,-6.0953 -4.54253,-1.60371 -5.25708,-2.37133 -3.80812,-4.09016 0.80947,-0.96035 2.04122,-1.14757 5.57496,-0.84699 4.05416,0.34525 4.53743,0.23147 4.55054,-1.07046 0.0196,-1.96316 -2.2971,-3.05989 -6.42069,-3.03944 -4.21911,0.0208 -6.52377,1.54768 -7.75084,5.13669 -1.31464,3.8441 0.15223,5.81428 5.70327,7.66089 5.13763,1.7092 6.41503,3.79858 3.66884,6.00093 -1.55144,1.24409 -2.05881,1.27323 -5.34315,0.30593 -3.44191,-1.01371 -4.94804,-0.9298 -4.93308,0.2752 0.0418,3.38396 7.95367,4.79936 12.76829,2.28433 z m 32.1332,0.27049 c 2.33382,-0.65894 5.27095,-4.8724 5.83335,-8.36681 1.2504,-7.76954 -2.43741,-12.89399 -9.75585,-13.55611 -8.98658,-0.81309 -14.97521,7.98563 -11.24555,16.52283 2.47721,5.6701 7.67035,7.51904 15.16805,5.40009 z M 710.25,747.09694 c -2.69796,-2.69004 -3.12235,-6.48959 -1.14252,-10.22721 1.27381,-2.40432 2.6605,-3.1866 5.67573,-3.20155 3.04078,-0.0149 4.7709,1.28033 5.74803,4.30326 1.74598,5.40155 -0.50685,10.2613 -5.11039,11.02402 -2.39047,0.39611 -3.1487,0.1177 -5.17085,-1.89852 z m 48.64547,2.3188 c 0.0137,-1.3716 -0.51831,-2.03772 -1.89579,-2.37489 -1.05307,-0.25754 -2.29058,-0.23742 -2.74994,0.044 -1.32477,0.81403 -1.00549,4.1675 0.47479,4.98678 1.92379,1.06432 4.1481,-0.3523 4.17093,-2.65666 z m -254.44958,-7.30311 0.11207,-11.3023 -1.96394,0.0109 -1.96404,0.009 -0.11207,11.30233 -0.11206,11.30217 1.96402,-0.009 1.96392,-0.0109 z m 69.74501,9.67344 c 1.72639,-1.19991 1.91029,-1.20094 2.57062,-0.0129 0.3911,0.7039 1.40061,1.27636 2.24336,1.27218 1.44901,-0.007 1.53824,-0.6236 1.64473,-11.36148 l 0.11268,-11.3539 -2.16293,0.25723 -2.16278,0.25732 -0.47783,8.56818 c -0.47646,8.54584 -0.48377,8.57106 -2.7798,9.66649 -1.59718,0.76193 -2.92142,0.88504 -4.32457,0.40259 -1.96166,-0.67466 -2.03446,-0.94824 -2.42078,-9.10538 -0.40366,-8.52177 -1.067,-10.45136 -3.29816,-9.59396 -1.01461,0.38945 -1.25054,1.95403 -1.31777,8.73487 -0.10889,10.98423 1.27418,13.53431 7.35008,13.55199 1.74007,0.005 4.00048,-0.57247 5.02362,-1.28168 z m 15.84613,-6.13567 c 0.04,-4.03773 0.28284,-7.87179 0.53952,-8.52027 0.25682,-0.64837 2.21074,-1.62992 4.34225,-2.18099 3.17004,-0.81718 3.87858,-1.31513 3.89251,-2.72001 0.0242,-2.4346 -1.72777,-2.7917 -5.15361,-1.05055 -2.6751,1.35959 -3.04208,1.38572 -3.8533,0.27404 -0.49315,-0.67584 -1.58155,-1.09525 -2.41876,-0.93194 -1.39726,0.27227 -1.54845,1.12394 -1.84306,10.38005 -0.17662,5.54579 -0.14882,10.53945 0.0616,11.09672 0.21044,0.55764 1.27764,1.00929 2.3714,1.00384 1.98706,-0.0109 1.98878,-0.0202 2.06148,-7.35089 z m 109.23766,-4.50097 0.11207,-11.30232 -1.87997,0.009 c -1.03398,0.005 -2.1,0.56534 -2.36898,1.2447 -0.26902,0.67939 -0.53407,5.76653 -0.58899,11.30454 l -0.0999,10.06913 2.35677,-0.0116 2.35691,-0.0116 z m 34.6969,2.49038 c 0.49227,-9.57011 0.75281,-10.03835 5.61085,-10.08223 3.96488,-0.0364 4.53112,1.346 4.43713,10.8269 l -0.0779,7.8457 2.35675,-0.0116 2.35689,-0.0116 0.0894,-9.02361 c 0.0887,-8.93449 0.0665,-9.04634 -2.18428,-11.29092 -2.59419,-2.58661 -7.12701,-3.07324 -10.00316,-1.07416 -1.47807,1.02756 -1.78456,1.02903 -2.62776,0.013 -0.52498,-0.63261 -1.57225,-1.14723 -2.32711,-1.14346 -1.22081,0.007 -1.42717,1.19115 -1.86776,10.72634 -0.2724,5.89575 -0.3481,10.98179 -0.16744,11.30247 0.1799,0.32072 1.14452,0.57883 2.14379,0.57401 1.7678,-0.009 1.82872,-0.24196 2.26125,-8.65083 z m -228.5577,-19.92769 c 0.0126,-1.26633 -0.41594,-1.53178 -2.14031,-1.32591 -2.3513,0.28059 -3.47411,2.74552 -1.73524,3.80968 1.46476,0.89642 3.85725,-0.63684 3.87555,-2.48377 z m 194.69856,0.33734 c 0.16678,-0.82986 -0.30995,-1.95381 -1.05927,-2.49752 -1.90614,-1.38364 -4.29787,0.0315 -4.32285,2.54949 -0.0175,1.75276 0.26222,1.94212 2.52964,1.71378 1.78191,-0.17951 2.6404,-0.71131 2.85248,-1.76575 z M 405.43766,685.33911 c 4.18004,-2.09295 11.50168,-8.25417 14.15052,-11.90774 1.35219,-1.86499 1.50837,-2.52194 0.71508,-3.00743 -0.82136,-0.50263 -0.77819,-1.11952 0.22614,-3.23305 1.78002,-3.74606 2.44127,-6.12588 1.69997,-6.11808 -0.35318,10e-4 -3.13946,2.30338 -6.19171,5.11034 -8.59317,7.90288 -17.89302,13.66554 -20.47902,12.69012 -2.02242,-0.76293 -1.49291,-7.72989 1.14384,-15.05144 4.93145,-13.69289 17.31488,-27.16436 18.25239,-19.85597 0.50165,3.91063 4.87834,6.17151 7.02251,3.62765 1.60326,-1.90209 2.68913,-8.38854 1.84016,-10.99228 -1.74266,-5.34465 -9.6856,-7.78533 -15.73973,-4.83654 -7.81993,3.80889 -17.83834,16.70622 -22.70358,29.22766 -2.54651,6.55391 -3.0876,16.45685 -1.10474,20.21893 1.15526,2.19188 3.73236,4.42832 6.81531,5.91432 2.36876,1.14175 10.53469,0.12533 14.35286,-1.78649 z m 31.62763,-10.61144 c 4.51091,-2.94297 11.5522,-6.32293 25.15916,-12.07711 3.08522,-1.30463 4.02965,-3.35778 1.53885,-3.34559 -2.14927,0.0109 -2.62922,-0.87514 -1.08214,-1.9971 0.75411,-0.54697 1.16549,-1.19952 0.91408,-1.45018 -0.8287,-0.82632 -12.81183,1.73054 -17.97366,3.83507 -6.00419,2.44794 -7.42665,2.59614 -6.81319,0.70994 5.42086,-16.6677 9.4043,-30.50332 9.42649,-32.74115 0.022,-2.21485 -4.15371,-5.02295 -6.98802,-4.69938 -1.81215,0.20694 -2.3105,1.443 -8.11473,20.12637 -3.40123,10.94825 -6.83524,21.89823 -7.63117,24.33317 -1.31725,4.03002 -1.33892,4.5822 -0.24113,6.15393 1.14082,1.63328 5.03514,4.58485 6.05736,4.59089 0.2599,-0.002 2.84662,-1.54599 5.7481,-3.43886 z m 49.73433,-9.04196 c 11.1129,-3.77315 23.0165,-23.57137 21.5424,-35.82949 -0.67298,-5.59585 -3.0793,-10.14406 -6.44917,-12.1895 -1.58004,-0.95907 -3.50924,-2.54105 -4.28704,-3.51562 -2.76736,-3.46731 -9.92288,-1.48166 -16.07867,4.4619 -10.30585,9.95033 -16.13773,21.93938 -16.2515,33.40894 -0.0478,4.82182 -0.01,4.90747 4.04333,9.04785 5.62624,5.74792 10.41918,7.01351 17.48065,4.61592 z m -9.78987,-9.58509 c -2.19807,-5.38227 3.31392,-19.13137 10.80166,-26.94347 4.67865,-4.88129 6.08162,-5.17339 8.60045,-1.79077 1.42885,1.91899 1.49338,2.5468 0.6805,6.62173 -2.08648,10.46078 -7.82955,19.45166 -14.63628,22.91331 -3.98227,2.02531 -4.3119,1.97689 -5.44633,-0.8008 z m -133.66767,-4.7923 c 6.43275,-5.31554 11.86018,-9.09926 32.61215,-22.73578 4.20056,-2.76023 26.9219,-15.78725 35.94743,-20.61004 20.52691,-10.96852 49.48607,-24.19805 69.44398,-31.72443 2.60205,-0.98126 6.32891,-2.49657 8.28176,-3.36729 10.00181,-4.45959 59.50583,-20.73037 85.11809,-27.97627 74.76998,-21.15303 144.31201,-33.68798 199.49643,-35.95934 18.50776,-0.76174 21.88295,-1.56447 22.28656,-5.30031 0.18467,-1.70963 0.85195,-2.69655 2.25503,-3.3349 1.85076,-0.84208 2.2816,-2.76525 0.64519,-2.88044 -0.39578,-0.0278 -2.12984,-0.43824 -3.85329,-0.91196 -3.60112,-0.98982 -19.01282,-2.42157 -25.74995,-2.39218 -2.50987,0.0109 -4.36805,-0.28992 -4.12912,-0.66855 0.4349,-0.68944 9.46448,-1.63255 17.94809,-1.87466 2.48512,-0.0709 4.52096,-0.39766 4.5242,-0.72608 0.0194,-1.94799 -32.15007,-1.50476 -54.97269,0.75741 -29.24914,2.89914 -71.25635,9.4355 -100.8763,15.69648 -8.36305,1.76777 -18.74791,3.94152 -23.07733,4.83054 -7.21594,1.48174 -33.03117,7.86603 -59.45564,14.70375 -5.8479,1.51286 -18.61098,5.24921 -28.36255,8.30216 -9.7516,3.05298 -21.27613,6.65475 -25.6101,8.00388 -11.84091,3.68608 -44.52729,16.01117 -64.27016,24.23435 -13.10696,5.45926 -41.84568,19.31507 -54.082,26.07464 -17.03818,9.41223 -33.07355,20.23802 -39.7678,26.84805 -5.88028,5.80625 -6.71424,7.12666 -4.34266,6.87581 3.94058,-0.41678 4.4976,1.62204 1.43031,5.23504 -2.42863,2.86064 -3.27663,5.52056 -2.1809,6.84073 0.6585,0.79337 0.3863,1.59869 -1.14708,3.39334 -3.44573,4.03286 -2.04899,5.84327 1.55175,2.0113 1.68763,-1.79605 1.99615,-1.89025 2.42977,-0.74177 0.48188,1.27617 -0.29753,3.36009 -2.25622,6.03228 -0.74477,1.01613 -0.72825,1.9945 0.0756,4.48132 0.56559,1.74983 1.35353,3.17982 1.75096,3.17788 0.39748,-0.002 4.14885,-2.83471 8.33646,-6.29501 z m 181.59878,4.49323 c 0.005,-0.47466 0.51874,-0.67048 1.1424,-0.43522 0.65545,0.24731 1.31571,-0.13176 1.56472,-0.89866 1.21539,-3.7415 8.96783,-33.17146 9.78745,-37.15508 l 0.94865,-4.61025 3.91373,-1.30399 c 10.60189,-3.53234 12.29742,-4.20154 13.39769,-5.28792 1.42975,-1.41177 0.87067,-2.60335 -1.21669,-2.59302 -0.83867,0.004 -1.5214,-0.34321 -1.51716,-0.77194 0.004,-0.42873 0.53801,-0.78208 1.18617,-0.78527 2.60978,-0.0129 0.9736,-1.50064 -2.14103,-1.94676 -5.36481,-0.76832 -14.0598,1.5376 -33.67136,8.92976 -9.60084,3.61882 -9.85783,3.81899 -8.21628,6.40005 0.70906,1.11482 1.97934,2.68874 2.82304,3.49744 1.48798,1.42654 1.66636,1.42848 5.9742,0.0652 2.44226,-0.77295 4.88399,-1.57535 5.42607,-1.78309 1.23026,-0.4714 1.27879,2.99935 0.0951,6.81342 -1.27354,4.10405 -5.71277,24.95889 -5.73229,26.92992 -0.0229,2.30411 2.82719,5.81509 4.7127,5.8058 0.83282,-0.004 1.51901,-0.39158 1.52277,-0.87038 z m 34.4837,-12.75285 c 0.89825,-2.68368 2.08688,-6.81071 2.64141,-9.17123 0.55447,-2.36053 1.27698,-4.81517 1.6056,-5.45484 0.59794,-1.16421 11.83471,-5.0356 12.54899,-4.32354 0.20845,0.20785 -0.45111,3.62313 -1.46577,7.58949 -1.01455,3.96637 -1.7438,8.61178 -1.62042,10.32319 0.20604,2.85632 0.40167,3.09864 2.38628,2.95414 1.18899,-0.0868 2.15853,0.17166 2.15455,0.5739 -0.0148,1.48852 1.34288,0.65828 2.31318,-1.41462 l 1.00135,-2.13938 1.02062,1.9225 c 1.01553,1.91302 1.02314,1.90707 1.54258,-1.18584 1.16837,-6.95649 4.2569,-17.98166 9.16987,-32.7332 2.90973,-8.73652 5.01258,-16.30055 4.78819,-17.22277 -0.364,-1.4953 -7.8084,-5.80997 -8.53286,-4.94547 -0.1514,0.18061 -2.2835,5.95018 -4.73809,12.82123 l -4.46267,12.49284 -3.84145,0.52016 c -2.11273,0.28606 -4.86654,0.9233 -6.11947,1.41598 -1.25304,0.4928 -2.42341,0.75106 -2.60106,0.57406 -0.17756,-0.17709 0.93464,-3.81394 2.47166,-8.08196 2.56096,-7.11178 3.28754,-10.04526 3.07599,-12.41924 -0.096,-1.07731 -7.70183,-4.39223 -8.96227,-3.90613 -0.4999,0.19283 -1.41729,2.06318 -2.03865,4.15636 -0.62129,2.09319 -1.93762,6.44033 -2.92503,9.66033 -0.98743,3.22002 -2.43864,7.96216 -3.22487,10.53815 -1.76289,5.77537 -2.3159,6.46799 -5.6769,7.10906 -1.84168,0.35111 -2.67985,0.93875 -2.68925,1.88501 -0.007,0.75618 -0.24538,2.472 -0.52878,3.81299 -0.48899,2.31475 -0.39073,2.43766 1.93987,2.42612 2.83399,-0.0141 2.84679,0.056 1.45542,7.95166 l -0.97555,5.53587 2.12477,1.8183 c 1.16858,0.99996 3.1159,1.81331 4.32725,1.80726 2.00884,-0.0109 2.34592,-0.43966 3.83551,-4.89038 z m 43.86824,-6.25734 c 0.0249,-2.52011 1.46362,-2.97239 2.03788,-0.64127 0.33436,1.3572 0.6893,0.65062 1.44899,-2.88402 1.31866,-6.13613 5.037,-18.48927 9.55748,-31.75161 2.00173,-5.87283 3.53121,-11.49224 3.39894,-12.4876 -0.16489,-1.2399 -1.40238,-2.41589 -3.93018,-3.73484 -3.27157,-1.70711 -3.82333,-1.79265 -4.87095,-0.75536 -1.35936,1.34586 -9.1415,24.29037 -12.66056,37.3276 -3.08053,11.41257 -3.13107,14.15474 -0.29228,15.87118 3.07834,1.86135 5.28659,1.46853 5.31053,-0.94472 z m 21.67238,-3.49081 c 2.05643,0.39879 2.22218,0.20283 3.51222,-4.15143 0.74473,-2.51349 1.87584,-6.32642 2.51387,-8.47289 5.79917,-19.51351 7.10006,-22.49801 7.91581,-18.16081 2.49932,13.28791 4.53535,20.40215 6.45246,22.54514 1.98123,2.21454 2.32776,2.31575 6.10449,1.78243 l 4.00402,-0.5654 2.58485,-9.49911 c 5.33701,-19.61328 9.48475,-30.27384 14.88201,-38.2501 1.57098,-2.32159 2.85896,-4.4917 2.86225,-4.82244 0.004,-0.33077 -1.05668,-0.38565 -2.35544,-0.12198 -1.76999,0.35927 -2.35857,0.19139 -2.35003,-0.67035 0.0149,-1.49892 -1.87628,-1.46736 -3.15753,0.0529 -0.55242,0.65543 -1.61126,1.00302 -2.35295,0.77242 -2.65902,-0.82682 -7.4042,7.18697 -12.38249,20.91187 -1.67457,4.61663 -3.34314,8.39536 -3.7081,8.39717 -0.36497,0.001 -0.84319,-0.96039 -1.06265,-2.13817 -1.95693,-10.50256 -4.14542,-14.274 -9.93629,-17.12315 -3.18696,-1.56802 -3.9693,-1.69888 -4.84571,-0.81052 -2.66392,2.70015 -13.9133,35.52982 -14.70008,42.90002 -0.36082,3.37916 -0.1564,4.83701 0.90647,6.46573 0.91232,1.39796 1.63751,1.84102 2.16343,1.3217 0.43507,-0.42958 1.76232,-0.5929 2.9494,-0.36271 z m 76.30522,-6.58963 c 0.44009,-0.94029 2.87515,-7.6474 5.41149,-14.90482 l 4.61135,-13.19506 8.918,-2.92272 c 4.90494,-1.60741 9.68798,-3.68285 10.62901,-4.61206 l 1.71102,-1.68942 -2.13854,0.0109 c -2.13034,0.0109 -2.83694,-1.01837 -1.33367,-1.94198 0.43462,-0.26707 0.79402,-0.8555 0.79849,-1.30756 0.0216,-2.18004 -29.82909,5.42333 -37.63915,9.5871 -3.01883,1.60948 -5.68176,8.68826 -3.26378,8.67631 0.50199,-0.002 2.80156,-0.60228 5.10992,-1.33327 2.30834,-0.73098 4.43822,-1.08814 4.733,-0.79463 0.94992,0.9472 -3.9768,5.29738 -8.71703,7.69703 -5.9053,2.9893 -9.46882,2.88401 -9.80491,-0.2899 -0.86328,-8.15159 13.955,-28.68902 23.27011,-32.25139 2.97225,-1.13665 4.05891,-1.23482 5.66803,-0.51213 2.62614,1.17951 3.44752,0.55242 3.47935,-2.65606 0.0642,-6.48368 -9.17834,-9.24543 -17.70771,-5.29125 -4.47556,2.0749 -14.57336,12.38662 -18.49441,18.88632 -3.8323,6.35261 -7.29233,15.50691 -7.33089,19.39556 -0.0528,5.3356 3.34494,10.36928 8.41709,12.46917 3.43513,1.42212 6.07275,1.36486 11.01924,-0.23953 2.22185,-0.72068 4.20968,-1.14116 4.41773,-0.93349 0.20784,0.20733 -0.21057,2.04534 -0.92985,4.08457 -1.48067,4.19765 -1.1163,4.96933 3.01448,6.38309 2.92058,0.99953 4.96016,0.23241 6.1517,-2.31404 z M 268.89936,625.6229 c 31.16459,-6.71941 66.75058,-35.93504 105.2825,-86.43554 10.94053,-14.33883 20.86297,-30.18185 29.53737,-47.16182 8.7415,-17.1113 14.5235,-31.84124 19.0059,-48.41832 2.99133,-11.06272 3.31726,-13.20019 3.8114,-24.99463 0.6462,-15.42182 -0.47831,-22.83227 -4.83583,-31.86892 -5.46072,-11.32449 -17.01255,-20.31054 -28.89616,-22.47803 -5.40062,-0.98503 -15.57194,-0.92751 -21.91776,0.12392 -22.20762,3.67959 -49.87597,20.01493 -75.12497,44.35362 -20.56492,19.82351 -33.20235,40.12166 -31.68106,50.88591 1.42523,10.0845 10.27065,18.11365 19.26741,17.48934 1.1327,-0.0787 1.27472,-0.67651 0.92322,-3.88605 -0.27853,-2.5433 0.0319,-5.09349 0.94262,-7.73958 1.87818,-5.45816 9.43803,-16.30494 16.0335,-23.00473 4.66273,-4.73649 5.54935,-5.34866 5.7412,-3.96406 0.12482,0.90062 -0.46945,2.98313 -1.32047,4.62783 -1.67879,3.24433 -13.11762,36.49184 -17.54799,51.00408 -9.88608,32.38306 -16.55606,64.57272 -15.85688,76.52585 0.48869,8.35422 3.26434,13.21516 10.78458,18.88685 1.60403,1.2097 2.71229,2.52302 2.46284,2.91844 -0.24947,0.39543 -4.38083,2.68289 -9.18078,5.08324 -18.54203,9.27244 -33.65461,10.08107 -38.19695,2.04375 -1.54387,-2.73171 -2.38018,-2.85862 -4.70859,-0.7144 -4.80669,4.42627 0.81657,17.736 9.8076,23.21371 7.60057,4.63061 15.47439,5.70722 25.6673,3.5095 z m 26.09494,-47.12823 c 2.23649,-28.14971 24.38575,-100.44263 43.92322,-143.36094 2.91498,-6.40342 3.38105,-9.8003 1.77454,-12.93435 -1.68091,-3.27918 -4.69806,-6.0499 -8.17123,-7.50375 l -2.74629,-1.14957 3.56605,-3.12617 c 10.50208,-9.20672 35.8171,-23.33336 47.74085,-26.64104 8.6364,-2.39576 15.61656,-2.02759 18.18743,0.9593 9.5529,11.09891 1.81698,54.76687 -16.37867,92.45481 -15.20234,31.48793 -38.46896,63.96028 -63.15732,88.14629 -10.05701,9.85239 -22.37502,19.96369 -24.33237,19.97337 -0.70452,0.004 -0.80894,-1.74903 -0.40621,-6.81795 z m 147.61643,-28.99919 c 9.94417,-4.50615 21.09968,-17.28679 32.44165,-37.16782 2.20729,-3.86912 4.64958,-8.35311 5.42725,-9.96452 0.77768,-1.61142 1.63874,-2.93094 1.91359,-2.93232 0.27484,-10e-4 0.47839,4.4696 0.45225,9.93545 -0.0259,5.46584 0.35838,11.38075 0.85435,13.14425 1.75105,6.22673 6.26873,9.73344 13.78378,10.69931 6.1782,0.79405 6.51611,0.27134 7.97985,-12.34444 1.48358,-12.78654 2.80833,-19.66893 6.67269,-34.66484 3.17008,-12.30162 4.18875,-14.99675 5.67112,-15.00408 0.9353,-0.004 3.47283,5.81712 4.64735,10.66235 1.37746,5.68238 8.28362,19.69373 12.18784,24.72683 6.63124,8.54858 11.13109,10.84834 21.12964,10.79891 6.41892,-0.0318 7.56643,-0.27692 12.45521,-2.66118 6.66124,-3.24873 15.20041,-11.05069 20.45275,-18.68713 2.12455,-3.0889 4.21058,-5.82986 4.63559,-6.09097 0.42502,-0.26116 1.44911,0.84952 2.2759,2.46815 5.21324,10.2062 18.40097,14.09972 29.47129,8.70105 2.60494,-1.27039 6.10133,-3.59623 7.76986,-5.16855 3.99552,-3.76536 10.95068,-12.66255 14.07733,-18.00829 1.37495,-2.35076 2.79945,-4.27561 3.16541,-4.27741 0.36608,-0.001 0.85994,1.04798 1.09755,2.33285 0.23752,1.28492 0.63651,3.43491 0.88646,4.77783 0.6499,3.49267 6.35035,8.90528 10.53851,10.00644 15.22499,4.00296 33.91202,-13.67708 51.79253,-49.00177 7.79002,-15.3899 11.25771,-23.41192 16.1928,-37.46001 3.97878,-11.32554 4.24126,-12.91391 2.13265,-12.9035 -1.99594,0.0109 -3.05832,1.40761 -8.91943,11.73545 -10.75428,18.95018 -23.02164,36.92036 -31.26441,45.79862 -5.35086,5.76343 -13.77898,12.35916 -14.90904,11.66758 -1.28654,-0.78731 -0.67912,-4.79463 2.13924,-14.1141 5.35182,-17.69685 11.06061,-32.66403 17.81471,-46.70622 l 2.99486,-6.22654 -1.8118,-3.44348 c -4.29363,-8.16051 -17.31516,-13.98183 -19.10654,-8.54163 -0.50539,1.53504 -2.75827,2.17553 -2.74443,0.78022 0.0162,-1.62337 -5.10371,-6.43938 -8.82476,-8.30113 -3.17738,-1.58977 -4.7573,-1.89878 -8.31427,-1.62609 -7.04604,0.54012 -11.31807,3.10214 -20.59197,12.34932 -13.90577,13.86574 -26.47135,34.0817 -35.52217,57.14923 -5.09315,12.98061 -16.90681,33.0573 -24.64733,41.88661 -3.88586,4.4324 -10.58653,8.80305 -14.43246,9.41382 -2.85123,0.45278 -3.54398,0.23218 -5.99398,-1.90851 -3.78434,-3.30657 -8.44797,-13.19226 -11.76986,-24.94874 -1.51201,-5.35104 -2.91088,-10.26454 -3.10872,-10.91885 -0.23022,-0.76173 1.86625,-3.15465 5.8288,-6.65269 21.96965,-19.39466 36.258,-35.60603 38.51757,-43.70162 0.95247,-3.41251 0.89632,-3.97146 -0.70521,-7.01527 -5.02326,-9.54729 -14.27064,-7.38973 -28.50314,6.65026 -12.52792,12.3584 -26.0099,29.94265 -32.11283,41.88398 -3.33579,6.52701 -4.96336,8.78007 -5.76516,7.98065 -0.79152,-0.78923 0.67675,-6.18524 5.78303,-21.25282 5.09701,-15.04026 8.25057,-22.91297 9.98025,-24.91539 0.70781,-0.81931 4.31095,-3.43346 8.00699,-5.80919 26.62542,-17.11427 54.22842,-42.9605 68.78188,-64.40451 10.52607,-15.50967 15.37211,-30.35672 12.83248,-39.31523 -3.52267,-12.42602 -21.31102,-18.54847 -36.90779,-12.70301 -10.68077,4.00306 -26.73121,19.70815 -39.02074,38.18134 -21.29801,32.01396 -44.48891,85.07063 -57.24037,130.95586 -3.63913,13.095 -4.49333,15.09248 -10.52093,24.6047 -7.06405,11.14771 -15.7574,22.61099 -22.18602,29.25522 -6.14536,6.35137 -13.85585,12.23167 -16.05297,12.24254 -1.38951,0.007 -1.49297,-0.34304 -0.97816,-3.30773 2.68027,-15.4354 13.86039,-48.38337 23.62119,-69.61204 l 3.56038,-7.74344 -1.36991,-2.56404 c -2.34961,-4.39756 -9.0014,-9.2766 -14.20224,-10.41725 -2.28868,-0.50195 -2.9351,-0.29125 -4.62863,1.50877 -9.13731,9.7118 -26.39734,52.91524 -32.46239,81.25634 -4.85649,22.69356 -3.10607,33.31341 6.3351,38.4354 4.97024,2.69646 12.98241,2.91386 18.31595,0.49701 z m 181.55934,-77.07115 c 0.004,-0.32152 0.54398,-3.45476 1.20041,-6.96273 2.808,-15.0059 12.68544,-37.79719 22.83298,-52.6851 6.60347,-9.68827 14.95964,-17.90909 18.2017,-17.907 4.40543,0.002 4.49426,0.68114 1.23474,9.43306 -11.39861,30.60663 -30.19924,62.61538 -39.69517,67.58278 -2.35347,1.23108 -3.78526,1.43552 -3.77466,0.53899 z m -75.27933,-92.90087 c 0.0295,-2.98499 16.31464,-33.27128 24.43205,-45.43766 8.72038,-13.07027 19.84537,-25.71786 25.54461,-29.0408 5.99745,-3.49678 7.0341,-1.42596 4.00952,8.01008 -4.56409,14.23922 -16.97636,32.91495 -31.92875,48.04059 -7.44487,7.53111 -20.70784,19.52715 -21.59418,19.53154 -0.26079,8.9e-4 -0.46928,-0.4954 -0.46325,-1.10375 z m -74.72565,34.79589 c 2.26248,-2.26179 5.89349,-7.27779 8.06882,-11.14669 2.17527,-3.86893 4.1644,-7.21082 4.42013,-7.42639 0.25574,-0.21564 1.76218,-2.15213 3.34747,-4.30341 3.21661,-4.36467 11.98964,-12.93851 14.72595,-14.39164 2.51375,-1.33489 2.32341,-3.83572 -0.34754,-4.56566 -1.18496,-0.3238 -5.15987,-0.5244 -8.8331,-0.44573 -13.20095,0.28266 -25.04863,6.54077 -30.3279,16.01957 -5.67513,10.18933 -6.12707,23.34749 -0.99661,29.00855 2.35264,2.59591 5.45393,1.73857 9.94278,-2.7486 z"
       id="path1"
       sodipodi:nodetypes="cccccccccssssssssssssssscsssscsssssssssssssssscccsssssssssssssssssssssssssssssssssssssssssssssssssssssssssssssssssssssssssssssssssssssssssssscsssccccccccssssscccsssssssssscssssssssccsssccccssscccsssssssssssssssssssscsscssssssssssssssssssssssscssssssssssssssssssssssssssssssssssssssssssssssssssssscsssssssssssssssssssssssscsssssscsssssssssssssscsssssssssssssssscsscssssssssssssssssssscsscsssssssssssssssssssssssssssscsssssssssssssssssssssscssssssssssssssssssssssssssssssssssssssscssssssssssssssssssssssssssssssscssssssssssssssssssssssssssssssssscsssscssssss"
       inkscape:highlight-color="#7decae" />
  </g>
</svg>
